<svg width="308" height="108" viewBox="0 0 308 108" fill="none" xmlns="http://www.w3.org/2000/svg">
<g clip-path="url(#clip0_1_2)">
<g filter="url(#filter0_d_1_2)">
<rect x="65" y="18" width="32" height="32" rx="4" fill="#D9D9D9"/>
</g>
<path d="M77.5062 38L75.0091 29.2727H77.0247L78.4693 35.3366H78.5417L80.1355 29.2727H81.8613L83.4508 35.3494H83.5275L84.9721 29.2727H86.9877L84.4906 38H82.6923L81.0304 32.294H80.9622L79.3045 38H77.5062Z" fill="black"/>
<g filter="url(#filter1_d_1_2)">
<rect x="25" y="58" width="32" height="32" rx="4" fill="#D9D9D9"/>
</g>
<path d="M38.7745 78H36.7972L39.81 69.2727H42.1879L45.1964 78H43.2191L41.033 71.267H40.9648L38.7745 78ZM38.6509 74.5696H43.3214V76.0099H38.6509V74.5696Z" fill="black"/>
<g filter="url(#filter2_d_1_2)">
<rect x="105" y="58" width="32" height="32" rx="4" fill="#D9D9D9"/>
</g>
<path d="M120.487 78H117.393V69.2727H120.513C121.39 69.2727 122.146 69.4474 122.78 69.7969C123.413 70.1435 123.9 70.642 124.241 71.2926C124.585 71.9432 124.757 72.7216 124.757 73.6278C124.757 74.5369 124.585 75.3182 124.241 75.9716C123.9 76.625 123.41 77.1264 122.771 77.4759C122.135 77.8253 121.373 78 120.487 78ZM119.238 76.419H120.41C120.956 76.419 121.415 76.3224 121.787 76.1293C122.162 75.9332 122.443 75.6307 122.631 75.2216C122.821 74.8097 122.916 74.2784 122.916 73.6278C122.916 72.983 122.821 72.456 122.631 72.0469C122.443 71.6378 122.163 71.3366 121.791 71.1435C121.419 70.9503 120.96 70.8537 120.415 70.8537H119.238V76.419Z" fill="black"/>
<g filter="url(#filter3_d_1_2)">
<rect x="65" y="58" width="32" height="32" rx="4" fill="#D9D9D9"/>
</g>
<path d="M82.5613 71.7827C82.5272 71.4389 82.3809 71.1719 82.1223 70.9815C81.8638 70.7912 81.513 70.696 81.0698 70.696C80.7686 70.696 80.5144 70.7386 80.307 70.8239C80.0996 70.9062 79.9405 71.0213 79.8297 71.169C79.7218 71.3168 79.6678 71.4844 79.6678 71.6719C79.6621 71.8281 79.6948 71.9645 79.7658 72.081C79.8397 72.1974 79.9405 72.2983 80.0684 72.3835C80.1962 72.4659 80.3439 72.5384 80.5115 72.6009C80.6792 72.6605 80.8581 72.7116 81.0485 72.7543L81.8326 72.9418C82.2132 73.027 82.5627 73.1406 82.8809 73.2827C83.199 73.4247 83.4746 73.5994 83.7076 73.8068C83.9405 74.0142 84.1209 74.2585 84.2488 74.5398C84.3794 74.821 84.4462 75.1435 84.449 75.5071C84.4462 76.0412 84.3098 76.5043 84.04 76.8963C83.7729 77.2855 83.3865 77.5881 82.8809 77.804C82.378 78.017 81.7715 78.1236 81.0613 78.1236C80.3567 78.1236 79.7431 78.0156 79.2203 77.7997C78.7005 77.5838 78.2942 77.2642 78.0016 76.8409C77.7118 76.4148 77.5598 75.8878 77.5456 75.2599H79.3311C79.351 75.5526 79.4348 75.7969 79.5826 75.9929C79.7331 76.1861 79.9334 76.3324 80.1834 76.4318C80.4363 76.5284 80.7218 76.5767 81.04 76.5767C81.3525 76.5767 81.6238 76.5312 81.8539 76.4403C82.0868 76.3494 82.2672 76.223 82.3951 76.0611C82.5229 75.8991 82.5868 75.7131 82.5868 75.5028C82.5868 75.3068 82.5286 75.142 82.4121 75.0085C82.2985 74.875 82.1309 74.7614 81.9093 74.6676C81.6905 74.5739 81.4221 74.4886 81.1039 74.4119L80.1536 74.1733C79.4178 73.9943 78.8368 73.7145 78.4107 73.3338C77.9846 72.9531 77.7729 72.4403 77.7757 71.7955C77.7729 71.267 77.9135 70.8054 78.1976 70.4105C78.4846 70.0156 78.878 69.7074 79.378 69.4858C79.878 69.2642 80.4462 69.1534 81.0826 69.1534C81.7303 69.1534 82.2956 69.2642 82.7786 69.4858C83.2644 69.7074 83.6422 70.0156 83.9121 70.4105C84.182 70.8054 84.3212 71.2628 84.3297 71.7827H82.5613Z" fill="black"/>
<g filter="url(#filter4_d_1_2)">
<rect x="211" y="18" width="32" height="32" rx="4" fill="#D9D9D9"/>
</g>
<path d="M226.282 38V31.9105L224.011 34.1903L223.014 33.2017L227.003 29.2216L230.983 33.2017L230.003 34.1903L227.723 31.9105V38H226.282Z" fill="black"/>
<g filter="url(#filter5_d_1_2)">
<rect x="171" y="58" width="32" height="32" rx="4" fill="#D9D9D9"/>
</g>
<path d="M186.756 78.4773L182.46 74.1818L186.756 69.8864L187.744 70.8665L185.149 73.4616H191.23V74.902H185.149L187.744 77.4929L186.756 78.4773Z" fill="black"/>
<g filter="url(#filter6_d_1_2)">
<rect x="251" y="58" width="32" height="32" rx="4" fill="#D9D9D9"/>
</g>
<path d="M267.25 78.4773L266.261 77.4972L268.856 74.902H262.775V73.4616H268.856L266.261 70.8707L267.25 69.8864L271.545 74.1818L267.25 78.4773Z" fill="black"/>
<g filter="url(#filter7_d_1_2)">
<rect x="211" y="58" width="32" height="32" rx="4" fill="#D9D9D9"/>
</g>
<path d="M227.723 69.2727V75.3622L229.994 73.0824L230.991 74.071L227.003 78.0511L223.023 74.071L224.003 73.0824L226.282 75.3622V69.2727H227.723Z" fill="black"/>
</g>
<defs>
<filter id="filter0_d_1_2" x="62" y="18" width="35" height="35" filterUnits="userSpaceOnUse" color-interpolation-filters="sRGB">
<feFlood flood-opacity="0" result="BackgroundImageFix"/>
<feColorMatrix in="SourceAlpha" type="matrix" values="0 0 0 0 0 0 0 0 0 0 0 0 0 0 0 0 0 0 127 0" result="hardAlpha"/>
<feOffset dx="-2" dy="2"/>
<feGaussianBlur stdDeviation="0.5"/>
<feComposite in2="hardAlpha" operator="out"/>
<feColorMatrix type="matrix" values="0 0 0 0 0 0 0 0 0 0 0 0 0 0 0 0 0 0 0.25 0"/>
<feBlend mode="normal" in2="BackgroundImageFix" result="effect1_dropShadow_1_2"/>
<feBlend mode="normal" in="SourceGraphic" in2="effect1_dropShadow_1_2" result="shape"/>
</filter>
<filter id="filter1_d_1_2" x="22" y="58" width="35" height="35" filterUnits="userSpaceOnUse" color-interpolation-filters="sRGB">
<feFlood flood-opacity="0" result="BackgroundImageFix"/>
<feColorMatrix in="SourceAlpha" type="matrix" values="0 0 0 0 0 0 0 0 0 0 0 0 0 0 0 0 0 0 127 0" result="hardAlpha"/>
<feOffset dx="-2" dy="2"/>
<feGaussianBlur stdDeviation="0.5"/>
<feComposite in2="hardAlpha" operator="out"/>
<feColorMatrix type="matrix" values="0 0 0 0 0 0 0 0 0 0 0 0 0 0 0 0 0 0 0.25 0"/>
<feBlend mode="normal" in2="BackgroundImageFix" result="effect1_dropShadow_1_2"/>
<feBlend mode="normal" in="SourceGraphic" in2="effect1_dropShadow_1_2" result="shape"/>
</filter>
<filter id="filter2_d_1_2" x="102" y="58" width="35" height="35" filterUnits="userSpaceOnUse" color-interpolation-filters="sRGB">
<feFlood flood-opacity="0" result="BackgroundImageFix"/>
<feColorMatrix in="SourceAlpha" type="matrix" values="0 0 0 0 0 0 0 0 0 0 0 0 0 0 0 0 0 0 127 0" result="hardAlpha"/>
<feOffset dx="-2" dy="2"/>
<feGaussianBlur stdDeviation="0.5"/>
<feComposite in2="hardAlpha" operator="out"/>
<feColorMatrix type="matrix" values="0 0 0 0 0 0 0 0 0 0 0 0 0 0 0 0 0 0 0.25 0"/>
<feBlend mode="normal" in2="BackgroundImageFix" result="effect1_dropShadow_1_2"/>
<feBlend mode="normal" in="SourceGraphic" in2="effect1_dropShadow_1_2" result="shape"/>
</filter>
<filter id="filter3_d_1_2" x="62" y="58" width="35" height="35" filterUnits="userSpaceOnUse" color-interpolation-filters="sRGB">
<feFlood flood-opacity="0" result="BackgroundImageFix"/>
<feColorMatrix in="SourceAlpha" type="matrix" values="0 0 0 0 0 0 0 0 0 0 0 0 0 0 0 0 0 0 127 0" result="hardAlpha"/>
<feOffset dx="-2" dy="2"/>
<feGaussianBlur stdDeviation="0.5"/>
<feComposite in2="hardAlpha" operator="out"/>
<feColorMatrix type="matrix" values="0 0 0 0 0 0 0 0 0 0 0 0 0 0 0 0 0 0 0.25 0"/>
<feBlend mode="normal" in2="BackgroundImageFix" result="effect1_dropShadow_1_2"/>
<feBlend mode="normal" in="SourceGraphic" in2="effect1_dropShadow_1_2" result="shape"/>
</filter>
<filter id="filter4_d_1_2" x="208" y="18" width="35" height="35" filterUnits="userSpaceOnUse" color-interpolation-filters="sRGB">
<feFlood flood-opacity="0" result="BackgroundImageFix"/>
<feColorMatrix in="SourceAlpha" type="matrix" values="0 0 0 0 0 0 0 0 0 0 0 0 0 0 0 0 0 0 127 0" result="hardAlpha"/>
<feOffset dx="-2" dy="2"/>
<feGaussianBlur stdDeviation="0.5"/>
<feComposite in2="hardAlpha" operator="out"/>
<feColorMatrix type="matrix" values="0 0 0 0 0 0 0 0 0 0 0 0 0 0 0 0 0 0 0.25 0"/>
<feBlend mode="normal" in2="BackgroundImageFix" result="effect1_dropShadow_1_2"/>
<feBlend mode="normal" in="SourceGraphic" in2="effect1_dropShadow_1_2" result="shape"/>
</filter>
<filter id="filter5_d_1_2" x="168" y="58" width="35" height="35" filterUnits="userSpaceOnUse" color-interpolation-filters="sRGB">
<feFlood flood-opacity="0" result="BackgroundImageFix"/>
<feColorMatrix in="SourceAlpha" type="matrix" values="0 0 0 0 0 0 0 0 0 0 0 0 0 0 0 0 0 0 127 0" result="hardAlpha"/>
<feOffset dx="-2" dy="2"/>
<feGaussianBlur stdDeviation="0.5"/>
<feComposite in2="hardAlpha" operator="out"/>
<feColorMatrix type="matrix" values="0 0 0 0 0 0 0 0 0 0 0 0 0 0 0 0 0 0 0.25 0"/>
<feBlend mode="normal" in2="BackgroundImageFix" result="effect1_dropShadow_1_2"/>
<feBlend mode="normal" in="SourceGraphic" in2="effect1_dropShadow_1_2" result="shape"/>
</filter>
<filter id="filter6_d_1_2" x="248" y="58" width="35" height="35" filterUnits="userSpaceOnUse" color-interpolation-filters="sRGB">
<feFlood flood-opacity="0" result="BackgroundImageFix"/>
<feColorMatrix in="SourceAlpha" type="matrix" values="0 0 0 0 0 0 0 0 0 0 0 0 0 0 0 0 0 0 127 0" result="hardAlpha"/>
<feOffset dx="-2" dy="2"/>
<feGaussianBlur stdDeviation="0.5"/>
<feComposite in2="hardAlpha" operator="out"/>
<feColorMatrix type="matrix" values="0 0 0 0 0 0 0 0 0 0 0 0 0 0 0 0 0 0 0.25 0"/>
<feBlend mode="normal" in2="BackgroundImageFix" result="effect1_dropShadow_1_2"/>
<feBlend mode="normal" in="SourceGraphic" in2="effect1_dropShadow_1_2" result="shape"/>
</filter>
<filter id="filter7_d_1_2" x="208" y="58" width="35" height="35" filterUnits="userSpaceOnUse" color-interpolation-filters="sRGB">
<feFlood flood-opacity="0" result="BackgroundImageFix"/>
<feColorMatrix in="SourceAlpha" type="matrix" values="0 0 0 0 0 0 0 0 0 0 0 0 0 0 0 0 0 0 127 0" result="hardAlpha"/>
<feOffset dx="-2" dy="2"/>
<feGaussianBlur stdDeviation="0.5"/>
<feComposite in2="hardAlpha" operator="out"/>
<feColorMatrix type="matrix" values="0 0 0 0 0 0 0 0 0 0 0 0 0 0 0 0 0 0 0.25 0"/>
<feBlend mode="normal" in2="BackgroundImageFix" result="effect1_dropShadow_1_2"/>
<feBlend mode="normal" in="SourceGraphic" in2="effect1_dropShadow_1_2" result="shape"/>
</filter>
<clipPath id="clip0_1_2">
<rect width="308" height="108" fill="white"/>
</clipPath>
</defs>
</svg>
